# xmcd CD database file
#
# Track frame offsets:
#	150
#	23410
#	53840
#	71007
#	99147
#	120765
#	133325
#	152305
#	173710
#	198180
#	218892
#	240722
#
# Disc length: 3390 seconds
#
# Revision: 0
# Processed by: cddbd v1.5.2PL0 Copyright (c) Steve Scherf et al.
# Submitted via: CDex 1.70beta2
#
DISCID=900d3c0c
DTITLE=Kimiko Kasai - AS
DYEAR=1900
DGENRE=Jazz
TTITLE0=Killing Me Softly With His Song
TTITLE1=We Can Fall In Love
TTITLE2=I Will Wait For You
TTITLE3=AS
TTITLE4=Alfie
TTITLE5=The Way We Were
TTITLE6=No Way Not Me
TTITLE7=This Masquerade
TTITLE8=Stardust
TTITLE9=Give Me Your Heart Tonight
TTITLE10=Everything Must Change
TTITLE11=Very Special Moment
EXTD=
EXTT0=
EXTT1=
EXTT2=
EXTT3=
EXTT4=
EXTT5=
EXTT6=
EXTT7=
EXTT8=
EXTT9=
EXTT10=
EXTT11=
PLAYORDER=
